<?xml version="1.0" encoding="iso-8859-1"?>
<!-- Uploaded to: SVG Repo, www.svgrepo.com, Generator: SVG Repo Mixer Tools -->
<svg height="800px" width="800px" version="1.1" id="Layer_1" xmlns="http://www.w3.org/2000/svg" xmlns:xlink="http://www.w3.org/1999/xlink" 
	 viewBox="0 0 512 512" xml:space="preserve">
<g>
	<circle style="fill:#65687A;" cx="170.489" cy="452.676" r="25.653"/>
	<circle style="fill:#65687A;" cx="461.228" cy="452.676" r="25.653"/>
</g>
<path d="M488.386,118.766L78.185,94.153L62.184,43.241c-3.307-10.52-12.937-17.588-23.964-17.588H8.017
	C3.589,25.653,0,29.242,0,33.67s3.589,8.017,8.017,8.017H38.22c3.988,0,7.472,2.557,8.668,6.362l81.794,260.253
	c3.766,11.981,12.497,21.256,23.381,26.019l-20.88,38.28c-7.206,13.213-6.923,28.828,0.76,41.77
	c3.672,6.184,8.697,11.159,14.575,14.688c-5.993,6.082-9.701,14.424-9.701,23.617c0,18.566,15.105,33.67,33.67,33.67
	s33.67-15.105,33.67-33.67c0-6.463-1.834-12.504-5.003-17.637h233.407c-3.169,5.133-5.003,11.174-5.003,17.637
	c0,18.566,15.105,33.67,33.67,33.67c18.566,0,33.67-15.105,33.67-33.67c0-18.566-15.105-33.67-33.67-33.67H168.249
	c-9.335,0-17.753-4.792-22.518-12.819s-4.941-17.713-0.471-25.908l23.142-42.425c0.181,0.002,0.361,0.011,0.543,0.011
	c1.657,0,3.33-0.097,5.009-0.297l308.358-36.709c16.926-2.016,29.69-16.389,29.69-33.434V143.839
	C512,130.574,501.627,119.56,488.386,118.766z M188.125,452.676c0,9.725-7.912,17.637-17.637,17.637
	c-9.725,0-17.637-7.912-17.637-17.637s7.912-17.637,17.637-17.637C180.213,435.04,188.125,442.952,188.125,452.676z
	 M478.864,452.676c0,9.725-7.912,17.637-17.637,17.637s-17.637-7.912-17.637-17.637s7.912-17.637,17.637-17.637
	S478.864,442.952,478.864,452.676z M495.967,143.839v61.389h-69.478v-74.113l60.937,3.656
	C492.215,135.058,495.967,139.042,495.967,143.839z M246.447,312.79l-19.069-91.529h85.095l3.783,83.219L246.447,312.79z
	 M224.038,205.228l-18.198-87.352l102.213,6.132l3.691,81.22H224.038z M328.523,221.261h81.932v72.005l-78.236,9.313
	L328.523,221.261z M327.794,205.228l-3.648-80.254l86.309,5.178v75.076H327.794z M189.255,116.88l18.406,88.347h-94.567
	l-29.763-94.703L189.255,116.88z M172.057,321.646c-12.493,1.486-24.306-6.146-28.079-18.152l-25.845-82.233h92.869l19.465,93.432
	L172.057,321.646z M480.414,284.937l-53.926,6.42v-70.096h69.478v46.163C495.967,276.353,489.281,283.881,480.414,284.937z"/>
</svg>